<svg xmlns="http://www.w3.org/2000/svg" width="996" height="356" viewBox="0 0 996 356">
  <metadata><?xpacket begin="﻿" id="W5M0MpCehiHzreSzNTczkc9d"?>
<x:xmpmeta xmlns:x="adobe:ns:meta/" x:xmptk="Adobe XMP Core 5.6-c138 79.159824, 2016/09/14-01:09:01        ">
   <rdf:RDF xmlns:rdf="http://www.w3.org/1999/02/22-rdf-syntax-ns#">
      <rdf:Description rdf:about=""/>
   </rdf:RDF>
</x:xmpmeta>
                                                                                                    
                                                                                                    
                                                                                                    
                                                                                                    
                                                                                                    
                                                                                                    
                                                                                                    
                                                                                                    
                                                                                                    
                                                                                                    
                                                                                                    
                                                                                                    
                                                                                                    
                                                                                                    
                                                                                                    
                                                                                                    
                                                                                                    
                                                                                                    
                                                                                                    
                                                                                                    
                           
<?xpacket end="w"?></metadata>
<defs>
    <style>
      .cls-1 {
        fill: #26373b;
      }

      .cls-1, .cls-2, .cls-3, .cls-4, .cls-5, .cls-6, .cls-7, .cls-8, .cls-9 {
        fill-rule: evenodd;
      }

      .cls-2 {
        fill: #bdd2d5;
      }

      .cls-3 {
        fill: #9ebbc1;
      }

      .cls-4 {
        fill: #89adb4;
      }

      .cls-5 {
        fill: #89baab;
      }

      .cls-6 {
        fill: #7aaba4;
      }

      .cls-7 {
        fill: #70a1a0;
      }

      .cls-8 {
        fill: #cadbde;
      }

      .cls-9 {
        fill: #385054;
      }
    </style>
  </defs>
  <path id="Ethical" class="cls-1" d="M398.763,137.764c0,12.94,0,24.052-.7,29.96-0.562,4.079-1.266,7.174-4.079,7.736a22.912,22.912,0,0,1-5.064.563c-1.688,0-2.25.422-2.25,1.125,0,0.985.984,1.407,2.813,1.407,2.813,0,6.47-.282,9.7-0.282,3.376-.14,6.471-0.14,8.018-0.14,4.22,0,8.58.14,14.628,0.422,6.049,0.14,13.785.422,24.334,0.422,5.345,0,6.611,0,7.6-3.657a110.351,110.351,0,0,0,1.828-15.613c0-1.407,0-2.532-1.125-2.532-0.984,0-1.266.562-1.547,2.11-0.985,5.767-2.673,8.72-6.33,10.408s-9.564,1.688-13.222,1.688c-14.347,0-16.6-2.11-16.879-11.815-0.14-4.079,0-17.02,0-21.8V126.652c0-.844.141-1.407,0.844-1.407,3.376,0,17.3.141,19.974,0.422,5.2,0.563,7.173,2.673,7.877,5.486a36.887,36.887,0,0,1,.562,5.064,1.116,1.116,0,0,0,1.266,1.266c1.266,0,1.266-1.548,1.266-2.673,0-.985.422-6.611,0.563-9.424,0.563-7.174,1.125-9.424,1.125-10.268a0.936,0.936,0,0,0-.984-1.125c-0.7,0-1.266.7-2.251,1.828-1.266,1.407-3.376,1.829-6.752,2.11-3.235.281-19.41,0.281-22.5,0.281-0.844,0-.985-0.562-0.985-1.547V81.079c0-.985.282-1.407,0.985-1.407,2.813,0,17.582.281,19.974,0.563,7.032,0.844,8.439,2.532,9.424,5.064a15.1,15.1,0,0,1,.844,5.064c0,1.266.281,1.969,1.266,1.969a1.534,1.534,0,0,0,1.406-1.547c0.281-1.688.563-7.877,0.7-9.283a89.949,89.949,0,0,1,1.126-9.143c0-.7-0.141-1.266-0.844-1.266a13.147,13.147,0,0,0-2.251.563,56.127,56.127,0,0,1-6.048.844c-2.673.141-30.664,0.141-35.165,0.141-1.969,0-5.2-.141-8.861-0.281-3.517,0-7.6-.141-11.394-0.141-2.109,0-3.094.281-3.094,1.266s0.844,1.266,2.391,1.266a28.926,28.926,0,0,1,5.486.422c4.642,0.985,5.767,3.235,6.048,8.017,0.281,4.5.281,8.439,0.281,29.82v24.756Zm102.5,6.048c0,10.972,0,20.4-.563,25.459-0.422,3.517-1.125,5.767-3.657,6.33a17.444,17.444,0,0,1-4.36.422c-1.547,0-1.969.7-1.969,1.266,0,0.844.844,1.266,2.391,1.266,4.923,0,13.362-.422,16.175-0.422,3.517,0,11.816.422,19.974,0.422,1.407,0,2.391-.422,2.391-1.266,0-.563-0.562-1.266-1.969-1.266a46.344,46.344,0,0,1-6.33-.422c-3.657-.563-4.36-2.813-4.782-6.189-0.563-5.2-.7-14.628-0.7-25.6V95.426l15.613,0.281c11.112,0.141,14.347,3.8,14.628,6.892l0.141,1.266c0.141,1.829.422,2.391,1.406,2.391,0.7,0,.985-0.7,1.126-1.969,0-3.094.281-11.956,0.281-14.488,0-1.829-.141-2.532-0.985-2.532-0.422,0-1.406.281-3.375,0.563a54.794,54.794,0,0,1-8.44.563H488.044a116.134,116.134,0,0,1-12.378-.563c-3.094-.422-4.36-1.407-5.345-1.407-0.7,0-1.125.7-1.407,2.251-0.281.985-2.672,12.519-2.672,14.488,0,1.266.281,1.969,1.125,1.969s1.126-.563,1.407-1.547a13.978,13.978,0,0,1,2.11-4.079c1.828-2.672,4.782-3.517,11.956-3.657l18.426-.422v48.386Zm89.985-16.738a0.741,0.741,0,0,1-.844-0.844V123.7c0-18.145,0-22.5.281-26.3,0.281-4.22,1.266-5.908,4.642-6.47a18.129,18.129,0,0,1,3.516-.422c1.548,0,2.251-.422,2.251-1.266s-0.844-1.125-2.532-1.125c-4.923,0-13.5.281-16.457,0.281-3.376,0-11.534-.281-18.145-0.281-1.688,0-2.673.281-2.673,1.125s0.844,1.266,2.11,1.266a22.8,22.8,0,0,1,4.923.422c3.939,1.125,5.064,2.391,5.345,6.47,0.141,3.8.141,7.173,0.141,25.318v21.1c0,10.972,0,20.4-.563,25.459-0.422,3.517-1.125,5.767-3.657,6.33a18.232,18.232,0,0,1-4.36.422c-1.547,0-1.969.7-1.969,1.266,0,0.844.844,1.266,2.391,1.266,4.923,0,13.081-.422,15.894-0.422,3.517,0,12.1.422,20.114,0.422,1.548,0,2.532-.422,2.532-1.266,0-.563-0.562-1.266-1.969-1.266a46.355,46.355,0,0,1-6.33-.422c-3.657-.563-4.36-2.813-4.782-6.189-0.563-5.2-.7-14.347-0.7-25.319v-9.142a0.7,0.7,0,0,1,.844-0.7h46.7a0.754,0.754,0,0,1,.7.7v9.142c0,10.972,0,20.115-.563,25.178-0.422,3.517-1.125,5.767-3.657,6.33a18.722,18.722,0,0,1-4.5.422c-1.407,0-1.969.7-1.969,1.266,0,0.844.984,1.266,2.672,1.266,4.782,0,13.5-.422,16.316-0.422,3.376,0,11.534.422,19.552,0.422,1.547,0,2.532-.422,2.532-1.266,0-.563-0.7-1.266-1.969-1.266a44.861,44.861,0,0,1-6.33-.422c-3.8-.563-4.5-2.813-4.923-6.189-0.563-5.2-.563-14.628-0.563-25.6v-21.1c0-18.145,0-21.52.282-25.318,0.281-4.22,1.266-5.908,4.5-6.47a20.746,20.746,0,0,1,3.657-.422c1.406,0,2.25-.422,2.25-1.266s-0.844-1.125-2.672-1.125c-4.783,0-12.941.281-15.895,0.281-3.235,0-11.956-.281-18.566-0.281-1.829,0-2.673.281-2.673,1.125s0.7,1.266,2.11,1.266a22.27,22.27,0,0,1,4.782.422c3.939,1.125,5.064,2.391,5.345,6.47,0.141,3.8.282,8.158,0.282,26.3v2.532a0.706,0.706,0,0,1-.7.844h-46.7Zm104.458,16.738c0,11.534,0,21.1-.563,26.022-0.421,3.516-1.125,5.2-3.657,5.767a18.227,18.227,0,0,1-4.36.422c-1.547,0-1.969.7-1.969,1.266,0,0.844.844,1.266,2.391,1.266,4.923,0,13.362-.422,16.176-0.422,3.375,0,11.815.422,19.973,0.422,1.407,0,2.391-.422,2.391-1.266,0-.563-0.562-1.266-1.969-1.266a46.355,46.355,0,0,1-6.33-.422c-3.657-.563-4.5-2.391-4.923-5.626-0.562-5.064-.562-14.629-0.562-26.163v-21.1c0-18.145,0-21.52.281-25.318,0.281-4.22,1.266-5.908,4.642-6.47a17.179,17.179,0,0,1,3.657-.422c1.266,0,1.969-.281,1.969-1.407,0-.7-0.984-0.985-2.532-0.985-4.782,0-12.8.281-15.894,0.281-3.517,0-11.956-.281-16.6-0.281-1.969,0-2.954.281-2.954,0.985,0,1.125.7,1.407,1.97,1.407a15.805,15.805,0,0,1,4.5.563c2.672,0.844,3.938,2.251,4.219,6.33,0.141,3.8.141,7.173,0.141,25.318v21.1ZM795.976,180.1c8.018,0,17.442-.7,22.365-2.672,2.11-.844,2.673-1.407,3.235-3.517a105.812,105.812,0,0,0,2.673-15.894c0-.985-0.563-2.11-1.407-2.11-0.984,0-1.266.562-1.547,2.391a19.324,19.324,0,0,1-4.22,8.018c-4.923,5.485-10.971,6.329-21.942,6.329-16.6,0-38.541-13.5-38.541-41.916,0-11.675,2.251-23.209,11.393-31.086,5.627-4.782,12.519-6.752,23.35-6.752,11.393,0,19.692,2.954,23.912,7.033a16.857,16.857,0,0,1,4.782,11.112c0,1.547.281,2.532,1.266,2.532,1.125,0,1.547-1.266,1.688-2.954,0.141-2.391.141-9,.422-12.941,0.281-4.22.562-5.626,0.562-6.611,0-.7-0.421-1.266-1.828-1.407-3.657-.422-7.736-1.266-12.378-1.969a127.037,127.037,0,0,0-18-1.266c-18.427,0-30.242,4.782-39.244,12.659-11.815,10.549-14.488,24.615-14.488,32.773,0,11.534,3.235,25.037,15.473,35.305C764.75,176.586,779.1,180.1,795.976,180.1Zm89.136-31.789a1.175,1.175,0,0,1,1.266.844l9.565,24.193a1.878,1.878,0,0,1-1.126,2.673c-1.266.141-1.547,0.563-1.547,1.266,0,0.844,1.407.844,3.657,0.984,10.409,0.282,19.411.282,23.772,0.282,4.641,0,5.345-.282,5.345-1.266q0-1.266-1.688-1.266a29.852,29.852,0,0,1-4.642-.422c-2.251-.422-5.767-1.969-10.549-12.8-7.877-18.145-28.554-66.531-31.508-73.142-1.266-2.672-1.829-3.8-3.657-3.8-1.266,0-2.251,1.407-3.657,4.782l-32.352,74.69c-2.531,6.048-4.641,9.705-10.268,10.549-1.125,0-2.532.141-3.657,0.141a1.225,1.225,0,0,0-1.406,1.266c0,0.984.7,1.266,2.25,1.266,6.47,0,13.081-.422,14.347-0.422,3.939,0,9.706.422,13.785,0.422,1.266,0,1.969-.282,1.969-1.266,0-.7-0.281-1.266-1.829-1.266h-1.828c-3.8,0-4.923-1.266-4.923-3.376a21.689,21.689,0,0,1,1.828-7.314l6.611-16.176a0.961,0.961,0,0,1,1.126-.844h29.116ZM858.527,141.7c-0.421,0-.7-0.281-0.421-0.844l11.955-29.819c0.141-.422.282-1.126,0.7-1.126,0.281,0,.422.7,0.562,1.126L883,141c0.141,0.422,0,.7-0.563.7H858.527Zm97.58-18.989c0-18.145,0-21.52.281-25.318,0.282-4.22,1.266-5.908,4.642-6.47a27.475,27.475,0,0,1,4.782-.422c1.548,0,2.251-.422,2.251-1.266s-0.844-1.125-2.673-1.125c-4.782,0-14.909.281-17.863,0.281-3.376,0-11.253-.281-17.02-0.281-1.828,0-2.672.281-2.672,1.125s0.7,1.266,2.109,1.266a16.513,16.513,0,0,1,4.08.422c3.938,1.125,5.063,2.391,5.345,6.47,0.14,3.8.14,7.173,0.14,25.318v21.1c0,10.972,0,20.4-.562,25.459-0.422,3.517-1.126,5.767-3.658,6.33a18.227,18.227,0,0,1-4.36.422c-1.547,0-1.969.7-1.969,1.266,0,0.844.844,1.266,2.391,1.266,2.532,0,5.626-.141,8.58-0.282,2.954,0,5.627-.14,7.033-0.14,5.064,0,10.268.14,16.457,0.281,6.189,0.281,13.363.422,22.224,0.422,6.47,0,7.033-.563,7.877-3.235a91.019,91.019,0,0,0,1.829-13.785c0-1.406-.282-2.672-1.126-2.672-0.984,0-1.266.7-1.406,1.828-0.282,2.251-1.547,5.627-3.095,7.174-3.094,3.235-7.877,3.376-14.488,3.376-9.564,0-14.347-.7-16.457-2.532-2.672-2.251-2.672-9.846-2.672-25.178v-21.1Z"/>
  <path id="Management_Systems" data-name="Management Systems" class="cls-1" d="M392.935,247.846c-0.249,1.692-.647,3.633-2.041,3.932a6.407,6.407,0,0,1-1.493.149c-0.5,0-.8.1-0.8,0.349,0,0.448.4,0.547,0.9,0.547,1.592,0,3.981-.149,4.927-0.149,0.9,0,3.135.149,5.226,0.149,0.746,0,1.194-.1,1.194-0.547,0-.249-0.348-0.349-0.746-0.349a9.567,9.567,0,0,1-2.091-.249,1.62,1.62,0,0,1-1.493-1.592,19.6,19.6,0,0,1,.15-2.339l2.588-19.411h0.2c1.742,3.733,4.728,9.606,5.176,10.651,0.6,1.394,4.529,9.009,5.723,11.3,0.8,1.493,1.294,2.488,1.742,2.488s0.7-.447,1.842-2.787l10.85-22.2h0.2l2.986,21.65c0.2,1.393.05,2.04-.249,2.14a0.675,0.675,0,0,0-.547.547c0,0.3.3,0.448,1.443,0.548,1.991,0.149,8.859.249,10.1,0.249,0.7,0,1.294-.15,1.294-0.548,0-.3-0.348-0.348-0.8-0.348a9.956,9.956,0,0,1-3.086-.5c-1.493-.448-1.991-1.891-2.439-5.027l-4.529-30.459c-0.149-1.045-.448-1.543-0.895-1.543s-0.7.4-1.095,1.195l-13.538,28.02-13.587-27.672c-0.647-1.294-.946-1.543-1.344-1.543s-0.7.448-.846,1.294Zm66.67-5.723a0.415,0.415,0,0,1,.448.3l3.384,8.561a0.663,0.663,0,0,1-.4.945c-0.448.05-.547,0.2-0.547,0.448,0,0.3.5,0.3,1.294,0.349,3.683,0.1,6.868.1,8.411,0.1,1.642,0,1.891-.1,1.891-0.448,0-.3-0.2-0.448-0.6-0.448a10.483,10.483,0,0,1-1.642-.149c-0.8-.149-2.041-0.7-3.733-4.529-2.787-6.42-10.1-23.541-11.149-25.88-0.448-.946-0.647-1.344-1.294-1.344-0.448,0-.8.5-1.294,1.692l-11.447,26.428c-0.9,2.14-1.642,3.434-3.633,3.733-0.4,0-.9.049-1.294,0.049a0.434,0.434,0,0,0-.5.448c0,0.349.249,0.448,0.8,0.448,2.289,0,4.628-.149,5.076-0.149,1.394,0,3.434.149,4.878,0.149,0.448,0,.7-0.1.7-0.448,0-.249-0.1-0.448-0.647-0.448H447.66c-1.343,0-1.742-.448-1.742-1.194a7.687,7.687,0,0,1,.647-2.588l2.34-5.724a0.339,0.339,0,0,1,.4-0.3h10.3Zm-9.406-2.34c-0.15,0-.249-0.1-0.15-0.3l4.231-10.551a0.474,0.474,0,0,1,.249-0.4,0.6,0.6,0,0,1,.2.4l4.131,10.6c0.049,0.149,0,.248-0.2.248H450.2Zm30.894-10h0.149c0.846,0.746,5.475,5.873,10.253,10.451,4.578,4.43,10.053,9.656,12.79,12.194a2.6,2.6,0,0,0,1.792.9c0.349,0,.7-0.4.7-1.344l0.5-26.677c0.049-2.389.4-3.135,1.592-3.484a4.454,4.454,0,0,1,1.344-.149c0.5,0,.747-0.2.747-0.448,0-.348-0.4-0.4-1-0.4-2.14,0-3.782.1-4.28,0.1-0.946,0-3.285-.1-5.574-0.1-0.647,0-1.1.05-1.1,0.4,0,0.249.149,0.448,0.7,0.448a7.339,7.339,0,0,1,2.289.249c1.045,0.4,1.443,1.145,1.493,3.733l0.448,18.813h-0.2c-0.647-.6-6.47-6.57-9.456-9.506-6.371-6.222-12.941-12.94-13.488-13.488-0.747-.746-1.344-1.393-1.891-1.393-0.448,0-.747.6-0.747,1.443l-0.4,25.084c-0.05,3.683-.2,4.828-1.344,5.126a8.963,8.963,0,0,1-1.991.2,0.6,0.6,0,0,0-.7.448c0,0.4.4,0.448,1,.448,2.24,0,4.33-.149,4.728-0.149,0.8,0,2.837.149,5.674,0.149,0.6,0,1-.1,1-0.448,0-.249-0.248-0.448-0.746-0.448a7.432,7.432,0,0,1-2.29-.3c-0.846-.3-1.393-1.294-1.493-4.579Zm51.793,12.343a0.416,0.416,0,0,1,.448.3l3.384,8.561a0.664,0.664,0,0,1-.4.945c-0.448.05-.548,0.2-0.548,0.448,0,0.3.5,0.3,1.294,0.349,3.683,0.1,6.869.1,8.412,0.1,1.642,0,1.891-.1,1.891-0.448,0-.3-0.2-0.448-0.6-0.448a10.5,10.5,0,0,1-1.643-.149c-0.8-.149-2.04-0.7-3.733-4.529-2.787-6.42-10.1-23.541-11.148-25.88-0.448-.946-0.647-1.344-1.294-1.344-0.448,0-.8.5-1.294,1.692l-11.447,26.428c-0.9,2.14-1.643,3.434-3.633,3.733-0.4,0-.9.049-1.3,0.049a0.433,0.433,0,0,0-.5.448c0,0.349.249,0.448,0.8,0.448,2.29,0,4.629-.149,5.077-0.149,1.393,0,3.434.149,4.877,0.149,0.448,0,.7-0.1.7-0.448,0-.249-0.1-0.448-0.647-0.448h-0.647c-1.344,0-1.742-.448-1.742-1.194a7.662,7.662,0,0,1,.647-2.588l2.339-5.724a0.339,0.339,0,0,1,.4-0.3h10.3Zm-9.407-2.34c-0.149,0-.249-0.1-0.149-0.3l4.23-10.551a0.476,0.476,0,0,1,.249-0.4,0.6,0.6,0,0,1,.2.4l4.131,10.6c0.05,0.149,0,.248-0.2.248h-8.461Zm55.381,5.525c0-2.09,0-3.783.05-5.077,0.049-1.493.5-2.09,1.692-2.289a5.939,5.939,0,0,1,1.194-.149,0.507,0.507,0,0,0,.548-0.448c0-.349-0.3-0.4-0.9-0.4-1.443,0-3.733.1-5.126,0.1-1.294,0-4.43-.1-6.719-0.1-0.6,0-.946.049-0.946,0.4a0.605,0.605,0,0,0,.7.448,7.853,7.853,0,0,1,1.692.149c1.394,0.4,1.842.846,1.891,2.289,0.05,1.294.05,2.887,0.05,4.977v3.882a1.4,1.4,0,0,1-.846,1.494,7.182,7.182,0,0,1-3.086.447c-9.357,0-15.229-6.619-15.229-15.727,0-5.176,1.592-8.311,4.031-10.3,3.036-2.439,6.072-2.489,8.461-2.489,4.927,0,8.212,1.892,9.506,3.235a5.627,5.627,0,0,1,1.493,3.484c0.05,0.349.149,0.548,0.448,0.548,0.348,0,.6-0.3.6-0.946a57.347,57.347,0,0,1,.3-6.968c0-.3-0.1-0.448-0.6-0.5a35.05,35.05,0,0,1-3.484-.448,49.926,49.926,0,0,0-7.764-.7c-3.683,0-7.615.3-11.8,2.737a15.66,15.66,0,0,0-7.664,13.836c0,11.7,9.506,16.574,20.256,16.574,3.434,0,7.764-.448,10.7-1.892,0.548-.3.548-0.348,0.548-1.493v-4.678Zm12.227-4.778c0,3.882,0,7.217-.2,9.008-0.149,1.245-.4,2.041-1.294,2.24a6.425,6.425,0,0,1-1.543.149c-0.547,0-.7.249-0.7,0.448,0,0.3.3,0.448,0.846,0.448,0.9,0,1.991-.05,3.036-0.1,1.046,0,1.991-.05,2.489-0.05,1.294,0,2.936.05,5.076,0.1,2.141,0.1,4.778.15,8.063,0.15,1.643,0,2.041,0,2.339-1.095a28.608,28.608,0,0,0,.6-4.679c0-.448-0.05-1-0.4-1-0.3,0-.4.2-0.5,0.647-0.3,1.742-.8,2.638-1.891,3.136a11.842,11.842,0,0,1-4.131.547c-4.48,0-5.823-.647-5.923-3.534-0.05-1.244,0-4.827,0-6.271V237.3c0-.249.05-0.448,0.249-0.448,1.1,0,6.072.1,6.868,0.2,1.643,0.149,2.19.8,2.439,1.643,0.1,0.547.1,1.094,0.149,1.542a0.332,0.332,0,0,0,.4.349c0.4,0,.448-0.6.448-0.946,0-.3.1-1.991,0.2-2.837,0.249-2.14.349-2.837,0.349-3.085a0.4,0.4,0,0,0-.349-0.448,1.737,1.737,0,0,0-.7.547,3.453,3.453,0,0,1-2.091.647c-1,.1-6.669.1-7.664,0.1-0.249,0-.3-0.2-0.3-0.448V223.658a0.323,0.323,0,0,1,.3-0.4c0.895,0,6.121.1,6.868,0.2,2.19,0.2,2.538.8,2.887,1.543a3.984,3.984,0,0,1,.3,1.543c0,0.348.05,0.547,0.349,0.547a0.749,0.749,0,0,0,.5-0.7c0.1-.5.2-2.339,0.249-2.787a18.836,18.836,0,0,1,.348-2.737,0.318,0.318,0,0,0-.3-0.4,5.084,5.084,0,0,0-.7.2,18.556,18.556,0,0,1-1.841.249c-0.847.049-10.552,0-11.945,0-1.244,0-4.032-.1-6.321-0.1-0.647,0-1,.1-1,0.4s0.3,0.448.746,0.448a8.106,8.106,0,0,1,1.742.149c1.394,0.4,1.792.847,1.891,2.29,0.05,1.344.05,2.538,0.05,8.958v7.466Zm25.968,8.063c-0.2,1.393-.6,3.085-1.792,3.235a7.967,7.967,0,0,1-1.344.1,0.586,0.586,0,0,0-.7.4c0,0.4.348,0.5,0.8,0.5,1.394,0,3.484-.149,4.33-0.149,0.8,0,2.787.149,4.629,0.149,0.647,0,1.045-.1,1.045-0.5a0.625,0.625,0,0,0-.7-0.4,7.529,7.529,0,0,1-1.543-.2,1.321,1.321,0,0,1-1.344-1.244,13.859,13.859,0,0,1,.15-1.991l2.09-16.324h0.149c1.444,2.936,4.032,8.062,4.38,8.859,0.5,1.194,3.982,7.664,5.027,9.605,0.7,1.294,1.194,2.14,1.742,2.14,0.5,0,.746-0.4,1.742-2.389l9.406-18.713h0.15l2.438,18.266c0.15,1.194.05,1.692-.2,1.791a0.584,0.584,0,0,0-.5.448c0,0.249.248,0.448,1.294,0.5,1.741,0.1,7.963.249,9.058,0.249,0.647,0,1.144-.15,1.144-0.5a0.579,0.579,0,0,0-.7-0.4,8.667,8.667,0,0,1-2.489-.4c-1.344-.4-1.742-1.543-2.14-4.181l-3.982-26.03a1.394,1.394,0,0,0-1-1.343,1.509,1.509,0,0,0-1.145,1.045l-11.745,23.69-11.746-23.392c-0.6-1.144-.9-1.343-1.344-1.343a1.1,1.1,0,0,0-.846,1.094Zm48.606-8.063c0,3.882,0,7.217-.2,9.008-0.149,1.245-.4,2.041-1.294,2.24a6.425,6.425,0,0,1-1.543.149c-0.547,0-.7.249-0.7,0.448,0,0.3.3,0.448,0.846,0.448,0.9,0,1.991-.05,3.036-0.1,1.046,0,1.991-.05,2.489-0.05,1.294,0,2.936.05,5.077,0.1,2.14,0.1,4.777.15,8.062,0.15,1.643,0,2.041,0,2.339-1.095a28.608,28.608,0,0,0,.6-4.679c0-.448-0.05-1-0.4-1-0.3,0-.4.2-0.5,0.647-0.3,1.742-.8,2.638-1.891,3.136a11.842,11.842,0,0,1-4.131.547c-4.48,0-5.823-.647-5.923-3.534-0.05-1.244,0-4.827,0-6.271V237.3c0-.249.05-0.448,0.249-0.448,1.1,0,6.072.1,6.868,0.2,1.643,0.149,2.19.8,2.439,1.643,0.1,0.547.1,1.094,0.149,1.542a0.332,0.332,0,0,0,.4.349c0.4,0,.448-0.6.448-0.946,0-.3.1-1.991,0.2-2.837,0.249-2.14.349-2.837,0.349-3.085a0.4,0.4,0,0,0-.349-0.448,1.737,1.737,0,0,0-.7.547,3.453,3.453,0,0,1-2.091.647c-1,.1-6.669.1-7.664,0.1-0.249,0-.3-0.2-0.3-0.448V223.658a0.323,0.323,0,0,1,.3-0.4c0.895,0,6.121.1,6.868,0.2,2.19,0.2,2.538.8,2.887,1.543a3.984,3.984,0,0,1,.3,1.543c0,0.348.05,0.547,0.349,0.547a0.748,0.748,0,0,0,.5-0.7c0.1-.5.2-2.339,0.249-2.787a18.736,18.736,0,0,1,.349-2.737,0.319,0.319,0,0,0-.3-0.4,5.084,5.084,0,0,0-.7.2,18.556,18.556,0,0,1-1.841.249c-0.846.049-10.552,0-11.945,0-1.244,0-4.032-.1-6.321-0.1-0.647,0-1,.1-1,0.4s0.3,0.448.746,0.448a8.106,8.106,0,0,1,1.742.149c1.394,0.4,1.792.847,1.891,2.29,0.05,1.344.05,2.538,0.05,8.958v7.466Zm29.9-10.75h0.149c0.846,0.746,5.475,5.873,10.253,10.451,4.579,4.43,10.053,9.656,12.791,12.194a2.6,2.6,0,0,0,1.791.9c0.349,0,.7-0.4.7-1.344l0.5-26.677c0.05-2.389.4-3.135,1.592-3.484a4.454,4.454,0,0,1,1.344-.149c0.5,0,.747-0.2.747-0.448,0-.348-0.4-0.4-1-0.4-2.14,0-3.782.1-4.28,0.1-0.945,0-3.285-.1-5.574-0.1-0.647,0-1.095.05-1.095,0.4,0,0.249.149,0.448,0.7,0.448a7.339,7.339,0,0,1,2.289.249c1.045,0.4,1.444,1.145,1.493,3.733l0.448,18.813h-0.2c-0.647-.6-6.47-6.57-9.456-9.506-6.371-6.222-12.94-12.94-13.488-13.488-0.746-.746-1.344-1.393-1.891-1.393-0.448,0-.747.6-0.747,1.443l-0.4,25.084c-0.05,3.683-.2,4.828-1.344,5.126a8.96,8.96,0,0,1-1.99.2,0.6,0.6,0,0,0-.7.448c0,0.4.4,0.448,1,.448,2.24,0,4.33-.149,4.728-0.149,0.8,0,2.837.149,5.674,0.149,0.6,0,1-.1,1-0.448,0-.249-0.249-0.448-0.747-0.448a7.422,7.422,0,0,1-2.289-.3c-0.847-.3-1.394-1.294-1.494-4.579Zm45.422,10.75c0,3.882,0,7.217-.2,9.008-0.149,1.245-.4,2.041-1.294,2.24a6.148,6.148,0,0,1-1.543.149c-0.547,0-.7.249-0.7,0.448,0,0.3.3,0.448,0.846,0.448,1.742,0,4.728-.149,5.723-0.149,1.244,0,4.181.149,7.068,0.149,0.5,0,.846-0.149.846-0.448a0.576,0.576,0,0,0-.7-0.448,16.31,16.31,0,0,1-2.24-.149c-1.294-.2-1.543-1-1.692-2.19-0.2-1.841-.249-5.176-0.249-9.058V223.409l5.525,0.1c3.931,0.049,5.076,1.343,5.176,2.438l0.05,0.448c0.049,0.647.149,0.846,0.5,0.846,0.249,0,.349-0.248.4-0.7,0-1.095.1-4.231,0.1-5.127,0-.647-0.05-0.9-0.348-0.9-0.15,0-.5.1-1.2,0.2a19.46,19.46,0,0,1-2.986.2H736.306a41.185,41.185,0,0,1-4.38-.2c-1.1-.15-1.543-0.5-1.891-0.5-0.249,0-.4.249-0.5,0.8-0.1.349-.945,4.43-0.945,5.126,0,0.448.1,0.7,0.4,0.7a0.543,0.543,0,0,0,.5-0.547,4.968,4.968,0,0,1,.747-1.444c0.647-.945,1.692-1.244,4.23-1.294l6.52-.149V240.53ZM787.1,253.52a14.382,14.382,0,0,0,7.913-2.041,10.031,10.031,0,0,0,4.678-8.66c0-4.728-2.14-8.162-8.162-12.691l-1.393-1.045c-4.131-3.136-5.276-4.878-5.276-7.167,0-2.986,2.24-5.126,5.923-5.126a6.3,6.3,0,0,1,5.424,2.438,6.019,6.019,0,0,1,1.294,3.285c0,0.6.15,0.9,0.5,0.9,0.4,0,.548-0.4.548-1.493,0-3.882.2-5.325,0.2-5.972a0.666,0.666,0,0,0-.7-0.6,24.1,24.1,0,0,0-6.619-.846c-6.918,0-11.5,3.932-11.5,9.407,0,4.031,1.891,7.515,7.366,11.795l2.289,1.792c4.131,3.235,4.878,5.525,4.878,7.963,0,2.638-2.19,5.674-6.67,5.674-3.085,0-6.022-1.344-7.117-5.027a10.5,10.5,0,0,1-.448-2.538c0-.4-0.049-0.846-0.5-0.846-0.4,0-.548.547-0.6,1.294-0.049.8-.249,3.782-0.249,6.52,0,1.095.15,1.344,0.946,1.692A17.239,17.239,0,0,0,787.1,253.52Zm28.157-8.212c0,0.7,0,2.439-.149,4.23-0.1,1.245-.448,2.041-1.344,2.24a6.717,6.717,0,0,1-1.543.149,0.576,0.576,0,0,0-.7.448c0,0.349.349,0.448,0.946,0.448,1.642,0,4.579-.149,5.674-0.149,1.194,0,4.131.149,6.868,0.149,0.6,0,.946-0.149.946-0.448a0.638,0.638,0,0,0-.747-0.448,16.677,16.677,0,0,1-2.19-.149c-1.294-.2-1.692-1-1.792-2.24-0.1-1.791-.1-3.533-0.1-4.23v-3.384a9.846,9.846,0,0,1,.547-4.231,142.113,142.113,0,0,1,8.511-13.537,5.867,5.867,0,0,1,2.289-1.991,5.339,5.339,0,0,1,1.892-.5,0.705,0.705,0,0,0,.846-0.5c0-.248-0.3-0.348-0.8-0.348-0.846,0-3.732.1-4.678,0.1-1.294,0-2.837-.1-4.28-0.1-0.5,0-.747.1-0.747,0.4,0,0.349.4,0.4,0.8,0.5a0.955,0.955,0,0,1,.945.946,5.573,5.573,0,0,1-.647,2.239c-0.647,1.294-5.972,10.352-6.52,11.348-0.746-1.195-6.47-11.1-7.266-12.393a3.3,3.3,0,0,1-.548-1.443,0.686,0.686,0,0,1,.6-0.647c0.7-.2,1-0.2,1-0.548,0-.3-0.249-0.4-0.647-0.4-1.991,0-4.031.1-4.977,0.1-1.443,0-4.728-.1-5.475-0.1-0.547,0-.846.1-0.846,0.4a0.544,0.544,0,0,0,.647.448,4.345,4.345,0,0,1,1.842.548,9.667,9.667,0,0,1,2.837,2.986c1.543,2.239,7.515,11.546,7.814,12.193a8.447,8.447,0,0,1,1,4.43v3.484Zm29.352,8.063c2.339,0,5.226-.249,7.316-1.742,3.186-2.24,4.38-4.778,4.38-7.914,0-3.832-1.792-7.067-7.565-10.252l-1.792-1c-3.931-2.19-4.628-3.683-4.628-5.574,0-2.887,2.837-4.529,5.972-4.529a5.883,5.883,0,0,1,4.878,1.991,4.783,4.783,0,0,1,1.144,2.787c0,0.5.15,0.746,0.448,0.746,0.349,0,.548-0.448.548-1.343,0-3.335.149-4.529,0.149-5.077a0.6,0.6,0,0,0-.6-0.547,25.952,25.952,0,0,0-6.221-.7c-6.072,0-11.049,3.334-11.049,8.51,0,3.733,1.692,6.57,6.868,9.606L847,239.833c3.882,2.29,4.33,4.131,4.33,5.973,0,2.986-2.289,5.375-6.072,5.375-2.737,0-6.022-1.045-6.968-4.181a7.905,7.905,0,0,1-.4-2.19c0-.3-0.049-0.7-0.448-0.7-0.348,0-.547.448-0.547,1.095-0.05.7-.249,3.335-0.249,5.624a1.174,1.174,0,0,0,.846,1.444A18.618,18.618,0,0,0,844.611,253.371Zm27.96-12.841c0,3.882,0,7.217-.2,9.008-0.15,1.245-.4,2.041-1.294,2.24a6.154,6.154,0,0,1-1.543.149c-0.548,0-.7.249-0.7,0.448,0,0.3.3,0.448,0.846,0.448,1.742,0,4.728-.149,5.724-0.149,1.244,0,4.18.149,7.067,0.149,0.5,0,.846-0.149.846-0.448a0.576,0.576,0,0,0-.7-0.448,16.3,16.3,0,0,1-2.239-.149c-1.294-.2-1.543-1-1.692-2.19-0.2-1.841-.249-5.176-0.249-9.058V223.409l5.524,0.1c3.932,0.049,5.077,1.343,5.176,2.438l0.05,0.448c0.05,0.647.149,0.846,0.5,0.846,0.249,0,.348-0.248.4-0.7,0-1.095.1-4.231,0.1-5.127,0-.647-0.049-0.9-0.348-0.9-0.149,0-.5.1-1.194,0.2a19.465,19.465,0,0,1-2.987.2H867.892a41.166,41.166,0,0,1-4.379-.2c-1.1-.15-1.543-0.5-1.892-0.5-0.248,0-.4.249-0.5,0.8-0.1.349-.946,4.43-0.946,5.126,0,0.448.1,0.7,0.4,0.7a0.544,0.544,0,0,0,.5-0.547,4.959,4.959,0,0,1,.746-1.444c0.648-.945,1.693-1.244,4.231-1.294l6.52-.149V240.53Zm25.668,0c0,3.882,0,7.217-.2,9.008-0.149,1.245-.4,2.041-1.294,2.24a6.425,6.425,0,0,1-1.543.149c-0.547,0-.7.249-0.7,0.448,0,0.3.3,0.448,0.847,0.448,0.9,0,1.99-.05,3.036-0.1,1.045,0,1.99-.05,2.488-0.05,1.294,0,2.936.05,5.077,0.1,2.14,0.1,4.778.15,8.062,0.15,1.643,0,2.041,0,2.34-1.095a28.718,28.718,0,0,0,.6-4.679c0-.448-0.05-1-0.4-1-0.3,0-.4.2-0.5,0.647-0.3,1.742-.8,2.638-1.891,3.136a11.842,11.842,0,0,1-4.131.547c-4.48,0-5.823-.647-5.923-3.534-0.05-1.244,0-4.827,0-6.271V237.3c0-.249.05-0.448,0.249-0.448,1.1,0,6.072.1,6.868,0.2,1.643,0.149,2.19.8,2.439,1.643,0.1,0.547.1,1.094,0.149,1.542a0.332,0.332,0,0,0,.4.349c0.4,0,.448-0.6.448-0.946,0-.3.1-1.991,0.2-2.837,0.249-2.14.349-2.837,0.349-3.085a0.4,0.4,0,0,0-.349-0.448,1.737,1.737,0,0,0-.7.547,3.453,3.453,0,0,1-2.091.647c-1,.1-6.669.1-7.664,0.1-0.249,0-.3-0.2-0.3-0.448V223.658a0.323,0.323,0,0,1,.3-0.4c0.9,0,6.121.1,6.868,0.2,2.19,0.2,2.538.8,2.887,1.543a3.984,3.984,0,0,1,.3,1.543c0,0.348.05,0.547,0.349,0.547a0.748,0.748,0,0,0,.5-0.7c0.1-.5.2-2.339,0.249-2.787a18.736,18.736,0,0,1,.349-2.737,0.319,0.319,0,0,0-.3-0.4,5.084,5.084,0,0,0-.7.2,18.556,18.556,0,0,1-1.841.249c-0.846.049-10.552,0-11.945,0-1.244,0-4.031-.1-6.321-0.1-0.647,0-1,.1-1,0.4s0.3,0.448.746,0.448a8.106,8.106,0,0,1,1.742.149c1.394,0.4,1.792.847,1.891,2.29,0.05,1.344.05,2.538,0.05,8.958v7.466Zm25.968,8.063c-0.2,1.393-.6,3.085-1.792,3.235a7.957,7.957,0,0,1-1.343.1,0.587,0.587,0,0,0-.7.4c0,0.4.348,0.5,0.8,0.5,1.394,0,3.484-.149,4.33-0.149,0.8,0,2.787.149,4.629,0.149,0.647,0,1.045-.1,1.045-0.5a0.625,0.625,0,0,0-.7-0.4,7.529,7.529,0,0,1-1.543-.2,1.321,1.321,0,0,1-1.344-1.244,13.859,13.859,0,0,1,.15-1.991l2.09-16.324h0.149c1.444,2.936,4.032,8.062,4.38,8.859,0.5,1.194,3.982,7.664,5.027,9.605,0.7,1.294,1.194,2.14,1.742,2.14,0.5,0,.746-0.4,1.742-2.389l9.406-18.713h0.15l2.438,18.266c0.15,1.194.05,1.692-.2,1.791a0.584,0.584,0,0,0-.5.448c0,0.249.248,0.448,1.294,0.5,1.742,0.1,7.963.249,9.058,0.249,0.647,0,1.145-.15,1.145-0.5a0.58,0.58,0,0,0-.7-0.4,8.667,8.667,0,0,1-2.489-.4c-1.344-.4-1.742-1.543-2.14-4.181l-3.981-26.03a1.4,1.4,0,0,0-1-1.343,1.509,1.509,0,0,0-1.145,1.045l-11.745,23.69-11.746-23.392c-0.6-1.144-.9-1.343-1.344-1.343a1.1,1.1,0,0,0-.846,1.094Zm53.334,4.778c2.34,0,5.226-.249,7.317-1.742,3.185-2.24,4.379-4.778,4.379-7.914,0-3.832-1.791-7.067-7.565-10.252l-1.791-1c-3.932-2.19-4.629-3.683-4.629-5.574,0-2.887,2.837-4.529,5.972-4.529a5.883,5.883,0,0,1,4.878,1.991,4.779,4.779,0,0,1,1.145,2.787c0,0.5.149,0.746,0.448,0.746,0.348,0,.547-0.448.547-1.343,0-3.335.149-4.529,0.149-5.077a0.6,0.6,0,0,0-.6-0.547,25.952,25.952,0,0,0-6.221-.7c-6.072,0-11.049,3.334-11.049,8.51,0,3.733,1.692,6.57,6.868,9.606l2.538,1.493c3.882,2.29,4.33,4.131,4.33,5.973,0,2.986-2.289,5.375-6.072,5.375-2.737,0-6.022-1.045-6.967-4.181a7.874,7.874,0,0,1-.4-2.19c0-.3-0.049-0.7-0.447-0.7-0.349,0-.548.448-0.548,1.095-0.05.7-.249,3.335-0.249,5.624a1.174,1.174,0,0,0,.846,1.444A18.621,18.621,0,0,0,977.541,253.371Z"/>
  <path id="abajo" class="cls-2" d="M216.806,69.467l65.749-40.237,47.458,27.212V256.158l-78.161,46.6L176.87,258.483Z"/>
  <path id="medio" class="cls-3" d="M250.689,48.921l44.586,26.05V234.45l-78.162,47.758-52.107-30.392V99.858Z"/>
  <path id="encima_2" data-name="encima 2" class="cls-3" d="M330.013,82.492l-60.792,30.391v91.175l60.792,39.075V82.492Z"/>
  <path id="encima" class="cls-4" d="M295.275,220.805l-26.054-16.747V112.883l26.054-13.025V220.805Z"/>
  <path id="abajo-2" data-name="abajo" class="cls-5" d="M108.556,67.142L49.781,30.392,0,56.442V256.158l78.161,46.6,74.981-44.271Z"/>
  <path id="medio-2" data-name="medio" class="cls-6" d="M79.322,48.921L34.737,73.808V234.45L112.9,282.208l52.108-30.392V99.858Z"/>
  <path id="encima_2-2" data-name="encima 2" class="cls-6" d="M0,82.492l60.792,30.391v91.175L0,243.133V82.492Z"/>
  <path id="encima-2" data-name="encima" class="cls-7" d="M34.737,220.805l26.054-16.747V112.883L34.737,99.858V220.805Z"/>
  <path id="arriba" class="cls-8" d="M165.006,99.858L79.357,48.476,164.743,0l85.824,48.529Z"/>
  <path id="abajo-3" data-name="abajo" class="cls-1" d="M86.844,308.258l77.9,47.758,78.424-47.758-78.424-46.6Z"/>
  <path id="abajo_encima" data-name="abajo encima" class="cls-9" d="M121.656,287.5l42.85,26.332L207.645,287.5l-43.139-25.987Z"/>
</svg>
